# File created by Blade
# Date/Time:  Tue Jan 27 19:23:16 2015
# Frame Rate: 120.000 fps
#------------------------------------------------------
:FULLY-SPECIFIED
:DEGREES
2874
root 3.407738 32.328771 0.372084 -3.190943 -0.859579 0.206144
Spine 0.702289 -0.296739 0.062456
Head 14.067362 -31.061325 -11.368300
LeftShoulder -4.460427 -5.695103 25.777911
LeftArm -6.029821 44.095802 -104.997780
LeftForeArm 2.945625 -0.000000 15.321857
LeftHand 9.725256 0.000000 -7.087824
LeftHandThumb1 -26.253704 0.000000 33.147579
RightShoulder -17.064654 -1.535558 -39.648121
RightArm 27.646422 76.021564 60.642854
RightForeArm 20.687913 -0.000000 103.869439
RightHand 30.226842 0.000000 -11.737640
RightHandThumb1 -24.326973 -0.000000 -32.862282
LeftUpLeg 10.279727 3.043673 0.943097
LeftLeg 1.608378 -0.000000 -0.000000
LeftFoot -18.053747 13.403496 -23.944865
LeftToeBase 16.793088 -0.000000 -0.000000
RightUpLeg 8.574125 -7.052475 2.384950
RightLeg 0.355805 -0.000000 -0.000000
RightFoot -12.176769 -13.796588 13.521867
RightToeBase 11.199635 -0.000000 -0.000000
2875
root 3.402173 32.327696 0.381945 -3.201905 -0.899797 0.192849
Spine 0.698614 -0.369772 0.040144
Head 14.079813 -30.926973 -11.258929
LeftShoulder -4.504762 -5.662023 25.808260
LeftArm -6.030032 44.102674 -105.007538
LeftForeArm 2.947584 0.000000 15.291126
LeftHand 9.667248 -0.000000 -6.996025
LeftHandThumb1 -26.253704 0.000000 33.147579
RightShoulder -17.177014 -1.756081 -39.634601
RightArm 25.997717 76.031994 58.973173
RightForeArm 20.862773 -0.000000 103.935241
RightHand 30.207382 0.000000 -11.849229
RightHandThumb1 -24.326973 -0.000000 -32.862282
LeftUpLeg 10.312856 3.080179 0.967497
LeftLeg 1.625477 -0.000000 -0.000000
LeftFoot -18.019337 13.398640 -23.825132
LeftToeBase 16.552908 -0.000000 -0.000000
RightUpLeg 8.597051 -7.025927 2.406339
RightLeg 0.362050 -0.000000 -0.000000
RightFoot -12.170703 -13.799106 13.485622
RightToeBase 11.107072 -0.000000 -0.000000
2876
root 3.395883 32.327116 0.392576 -3.213928 -0.946022 0.180901
Spine 0.692797 -0.425108 0.011098
Head 14.103005 -30.789885 -11.143569
LeftShoulder -4.538218 -5.639575 25.844570
LeftArm -6.045988 44.083799 -105.018167
LeftForeArm 2.981553 -0.000000 15.282896
LeftHand 9.593229 -0.000000 -6.971942
LeftHandThumb1 -26.253704 0.000000 33.147579
RightShoulder -17.304533 -2.044141 -39.583769
RightArm 24.531717 76.066928 57.474757
RightForeArm 20.957409 -0.000000 103.999124
RightHand 30.272021 0.000000 -11.771101
RightHandThumb1 -24.326973 -0.000000 -32.862282
LeftUpLeg 10.353021 3.131609 0.998408
LeftLeg 1.618150 -0.000000 -0.000000
LeftFoot -18.087886 13.381623 -23.959403
LeftToeBase 16.699187 -0.000000 -0.000000
RightUpLeg 8.623924 -6.978857 2.429195
RightLeg 0.364399 -0.000000 -0.000000
RightFoot -12.188168 -13.795637 13.490907
RightToeBase 11.136748 -0.000000 -0.000000
2877
root 3.389955 32.326330 0.403173 -3.231196 -0.971679 0.174657
Spine 0.690222 -0.506688 -0.031152
Head 14.152897 -30.643221 -11.016420
LeftShoulder -4.560087 -5.626612 25.893526
LeftArm -6.085237 44.020784 -105.043775
LeftForeArm 2.992055 -0.000000 15.291997
LeftHand 9.593016 -0.000000 -7.004578
LeftHandThumb1 -26.253704 0.000000 33.147579
RightShoulder -17.400512 -2.227345 -39.566553
RightArm 22.364879 76.050636 55.297932
RightForeArm 21.089676 -0.000000 104.087815
RightHand 30.182345 0.000000 -11.981684
RightHandThumb1 -24.326973 -0.000000 -32.862282
LeftUpLeg 10.391509 3.172034 1.020130
LeftLeg 1.623272 -0.000000 -0.000000
LeftFoot -18.117699 13.367715 -23.976029
LeftToeBase 16.797430 -0.000000 -0.000000
RightUpLeg 8.652044 -6.955701 2.443358
RightLeg 0.377573 -0.000000 -0.000000
RightFoot -12.200163 -13.794118 13.496104
RightToeBase 11.164179 -0.000000 -0.000000
2878
root 3.382659 32.325095 0.414410 -3.241054 -0.995856 0.162822
Spine 0.717656 -0.554113 -0.042793
Head 14.111021 -30.423432 -10.857044
LeftShoulder -4.606053 -5.648673 25.920057
LeftArm -6.128878 44.020107 -105.060878
LeftForeArm 2.982541 -0.000000 15.313569
LeftHand 9.602844 -0.000000 -6.954850
LeftHandThumb1 -26.253704 0.000000 33.147579
RightShoulder -17.482325 -3.053959 -39.370389
RightArm 22.316456 76.597850 55.216760
RightForeArm 21.195663 0.000000 104.239064
RightHand 30.037363 -0.000000 -11.771606
RightHandThumb1 -24.326973 -0.000000 -32.862282
LeftUpLeg 10.431636 3.193047 1.048183
LeftLeg 1.615643 -0.000000 -0.000000
LeftFoot -18.147358 13.350201 -24.021992
LeftToeBase 16.880569 -0.000000 -0.000000
RightUpLeg 8.675840 -6.933076 2.466862
RightLeg 0.387460 -0.000000 -0.000000
RightFoot -12.231535 -13.784133 13.506157
RightToeBase 11.282236 -0.000000 -0.000000
2879
root 3.376525 32.324451 0.422026 -3.245747 -1.013885 0.159176
Spine 0.712652 -0.665968 -0.074729
Head 14.155797 -30.218356 -10.745676
LeftShoulder -4.632590 -5.640639 25.960593
LeftArm -6.164465 43.947760 -105.079944
LeftForeArm 2.984340 -0.000000 15.316048
LeftHand 9.675936 -0.000000 -6.941545
LeftHandThumb1 -26.253704 0.000000 33.147579
RightShoulder -17.600370 -3.273132 -39.364638
RightArm 20.545024 76.632519 53.485346
RightForeArm 21.092030 -0.000000 104.357387
RightHand 30.037859 -0.000000 -11.718706
RightHandThumb1 -24.326973 -0.000000 -32.862282
LeftUpLeg 10.452168 3.231190 1.065594
LeftLeg 1.618253 -0.000000 -0.000000
LeftFoot -18.137387 13.364344 -23.959228
LeftToeBase 16.772465 -0.000000 -0.000000
RightUpLeg 8.677798 -6.840404 2.492129
RightLeg 0.414250 -0.000000 -0.000000
RightFoot -12.252334 -13.860395 13.504899
RightToeBase 11.207954 -0.000000 -0.000000
